<svg xmlns="http://www.w3.org/2000/svg" viewBox="0 0 48 48">
  <rect x="10" y="2" width="28" height="4" rx="1.5" fill="#6e63a8"/>
  <rect x="10" y="42" width="28" height="4" rx="1.5" fill="#6e63a8"/>
  <path d="M14 6 L14 10 C14 18 20 22 24 24 C20 26 14 30 14 38 L14 42 L34 42 L34 38 C34 30 28 26 24 24 C28 22 34 18 34 10 L34 6 Z" fill="#8b7ec8"/>
  <path d="M18 38 C18 32 22 29 24 27 C26 29 30 32 30 38 Z" fill="#c9a84e"/>
  <path d="M17 8 C17 14 21 18 24 20 C27 18 31 14 31 8 Z" fill="#c4bde0" opacity="0.6"/>
</svg>
